<svg xmlns="http://www.w3.org/2000/svg" width="1000" height="460" viewBox="0 0 1000 460" role="img" aria-label="African UN General Debate speeches in the analysis sample">
<style>
text{font-family:-apple-system,BlinkMacSystemFont,"Segoe UI",Roboto,Arial,sans-serif;fill:#1f2937}
.title{font-size:24px;font-weight:700} .sub{font-size:14px;fill:#6b7280}
.axis{font-size:12px;fill:#6b7280} .label{font-size:13px} .small{font-size:11px;fill:#6b7280}
.grid{stroke:#e5e7eb;stroke-width:1} .blue{stroke:#009EDB;fill:none} .fillblue{fill:#009EDB}
</style><rect width="100%" height="100%" fill="white"/><text x="55" y="38" class="title">African UN General Debate speeches in the analysis sample</text><text x="55" y="62" class="sub">2,159 speeches across 54 African country codes, 1970–2015</text><line x1="80" y1="366.6" x2="970" y2="366.6" class="grid"/><text x="68" y="370.6" text-anchor="end" class="axis">20</text><line x1="80" y1="328.2" x2="970" y2="328.2" class="grid"/><text x="68" y="332.2" text-anchor="end" class="axis">25</text><line x1="80" y1="289.8" x2="970" y2="289.8" class="grid"/><text x="68" y="293.8" text-anchor="end" class="axis">30</text><line x1="80" y1="251.3" x2="970" y2="251.3" class="grid"/><text x="68" y="255.3" text-anchor="end" class="axis">35</text><line x1="80" y1="212.9" x2="970" y2="212.9" class="grid"/><text x="68" y="216.9" text-anchor="end" class="axis">40</text><line x1="80" y1="174.5" x2="970" y2="174.5" class="grid"/><text x="68" y="178.5" text-anchor="end" class="axis">45</text><line x1="80" y1="136.1" x2="970" y2="136.1" class="grid"/><text x="68" y="140.1" text-anchor="end" class="axis">50</text><line x1="80" y1="97.7" x2="970" y2="97.7" class="grid"/><text x="68" y="101.7" text-anchor="end" class="axis">55</text><text x="80.0" y="432" text-anchor="middle" class="axis">1970</text><text x="178.9" y="432" text-anchor="middle" class="axis">1975</text><text x="277.8" y="432" text-anchor="middle" class="axis">1980</text><text x="376.7" y="432" text-anchor="middle" class="axis">1985</text><text x="475.6" y="432" text-anchor="middle" class="axis">1990</text><text x="574.4" y="432" text-anchor="middle" class="axis">1995</text><text x="673.3" y="432" text-anchor="middle" class="axis">2000</text><text x="772.2" y="432" text-anchor="middle" class="axis">2005</text><text x="871.1" y="432" text-anchor="middle" class="axis">2010</text><text x="970.0" y="432" text-anchor="middle" class="axis">2015</text><polyline points="80.0,374.3 99.8,243.7 119.6,220.6 139.3,274.4 159.1,220.6 178.9,228.3 198.7,197.6 218.4,166.8 238.2,174.5 258.0,166.8 277.8,136.1 297.6,166.8 317.3,166.8 337.1,166.8 356.9,159.1 376.7,220.6 396.4,182.2 416.2,166.8 436.0,151.5 455.8,151.5 475.6,143.8 495.3,151.5 515.1,151.5 534.9,151.5 554.7,128.4 574.4,166.8 594.2,136.1 614.0,136.1 633.8,120.7 653.6,143.8 673.3,151.5 693.1,113.0 712.9,128.4 732.7,128.4 752.4,120.7 772.2,151.5 792.0,120.7 811.8,128.4 831.6,120.7 851.3,113.0 871.1,128.4 890.9,113.0 910.7,113.0 930.4,120.7 950.2,113.0 970.0,113.0" class="blue" stroke-width="3" stroke-linejoin="round" stroke-linecap="round"/><circle cx="80.0" cy="374.3" r="4" fill="#009EDB"/><circle cx="970.0" cy="113.0" r="4" fill="#009EDB"/><text x="525.0" y="453" text-anchor="middle" class="axis">Year</text><text x="18" y="247.5" text-anchor="middle" class="axis" transform="rotate(-90 18 247.5)">Number of speeches</text></svg>
